# xmcd CD database file
#
# Track frame offsets:
#	150
#	19892
#	34472
#	52227
#	69515
#	88422
#	109032
#	130312
#	150052
#	170022
#	189252
#	210235
#	230327
#	248362
#	264740
#	285630
#
# Disc length: 4054 seconds
#
# Revision: 2
# Processed by: cddbd v1.5.2PL0 Copyright (c) Steve Scherf et al.
# Submitted via: jetAudio 7
#
DISCID=db0fd410
DTITLE=無印良品 - 珍重
DYEAR=1998
DGENRE=Country
TTITLE0=別人都說我們會分開 - 無印良品
TTITLE1=朋友 - 無印良品
TTITLE2=想見你 - 無印良品
TTITLE3=是你變了嗎 - 無印良品
TTITLE4=傷心地鐵 - 無印良品
TTITLE5=身邊 - 無印良品
TTITLE6=註定 - 無印良品
TTITLE7=就叫我孩子 - 無印良品
TTITLE8=掌心 - 無印良品
TTITLE9=多心 - 無印良品
TTITLE10=猜測 - 無印良品
TTITLE11=有你在身旁 - 無印良品
TTITLE12=每一次喊你 - 無印良品
TTITLE13=等你的心 - 無印良品
TTITLE14=我找你找了好久 - 無印良品
TTITLE15=胡思亂想 - 無印良品
EXTD=
EXTT0=
EXTT1=
EXTT2=
EXTT3=
EXTT4=
EXTT5=
EXTT6=
EXTT7=
EXTT8=
EXTT9=
EXTT10=
EXTT11=
EXTT12=
EXTT13=
EXTT14=
EXTT15=
PLAYORDER=
